<?xml version="1.0" encoding="utf-8"?>
<svg width="66" height="37" viewBox="0 0 66 37" fill="none" xmlns="http://www.w3.org/2000/svg"><g clip-path="url(#itv-winter-logo_svg__clip0_1024_149)" fill="#52B038"><path d="M58.009 14.754l-7.892 13.53-7.895-13.53h-7.893L46.17 36.18h7.895l11.84-21.426h-7.895zM37.295 28.285h-7.476a3.94 3.94 0 01-3.94-3.94v-1.688h8.31l-4.37-7.903h-3.94v-6.21h-7.878V24.34a11.854 11.854 0 0011.84 11.84h11.84l-4.386-7.895zM15.61 30.015c-2.113-.826-3.093-4.745-3.093-4.745.578.534 2.18-.329 2.18-.329-1.339-.08-2.816-5.359-2.816-5.359.848.41 2.143-.863 2.143-.863-1.638-.204-3.437-4.825-3.437-4.825.658.329 1.609-1.03 1.609-1.03-1.39-.622-4.285-3.978-4.285-3.978s-2.895 3.356-4.284 3.977c0 0 .943 1.36 1.608 1.031 0 0-1.798 4.62-3.436 4.825 0 0 1.294 1.28 2.142.863 0 0-1.477 5.279-2.815 5.36 0 0 1.609.862 2.18.328 0 0-.98 3.92-3.094 4.745 0 0 2.106 3.093 7.692 3.093s7.691-3.092 7.691-3.092h.015z"></path><path d="M9.197 30.923H6.631v5.257h2.566v-5.257zM7.333.44a.525.525 0 01.998 0l.503 1.547c.07.216.272.363.5.363h1.626c.508 0 .72.65.308.95l-1.316.955a.525.525 0 00-.19.587l.502 1.547a.525.525 0 01-.808.587L8.141 6.02a.525.525 0 00-.618 0l-1.315.956A.525.525 0 015.4 6.39l.502-1.547a.525.525 0 00-.19-.587L4.395 3.3a.525.525 0 01.308-.95h1.627a.525.525 0 00.499-.362L7.333.44z"></path></g><defs><clipPath id="itv-winter-logo_svg__clip0_1024_149"><path fill="#fff" d="M0 0h66v36.179H0z"></path></clipPath></defs></svg>
